<?xml version="1.0" encoding="utf-8"?>
<!-- Generator: Adobe Illustrator 16.0.0, SVG Export Plug-In . SVG Version: 6.00 Build 0)  -->
<!DOCTYPE svg PUBLIC "-//W3C//DTD SVG 1.1//EN" "http://www.w3.org/Graphics/SVG/1.1/DTD/svg11.dtd">
<svg version="1.1" id="Layer_1" xmlns="http://www.w3.org/2000/svg" xmlns:xlink="http://www.w3.org/1999/xlink" x="0px" y="0px"
	 width="535.464px" height="496.005px" viewBox="0 0 535.464 496.005" enable-background="new 0 0 535.464 496.005"
	 xml:space="preserve">
<g>
	<defs>
		<rect id="SVGID_1_" width="535.464" height="496.005"/>
	</defs>
	<clipPath id="SVGID_2_">
		<use xlink:href="#SVGID_1_"  overflow="visible"/>
	</clipPath>
	<path clip-path="url(#SVGID_2_)" fill="#A50000" d="M239.498,86.696l-13.217,24.487h11c26.932,0,52.135-13.266,67.382-35.467
		l-9.563-5.301C275.266,59.42,250.27,66.739,239.498,86.696"/>
	<path clip-path="url(#SVGID_2_)" fill="#F7D247" d="M365.273,95.668c-9.471-27.087-35.029-45.227-63.726-45.227
		c-26.168,0-50.228,14.354-62.658,37.382l-12.609,23.36c0,0,5.953,0.565,15.035-0.044l29.481-27.152l37.231,106.482
		c2.901,8.298,10.731,13.855,19.521,13.855h7.44l-27.564-78.706h3.492l23.176,66.176c2.629,7.505,9.713,12.53,17.665,12.53h6.61
		l-27.563-78.706h3.489l23.442,66.931c2.47,7.053,9.126,11.775,16.599,11.775h6.382l-27.565-78.706h3.491l23.379,66.751
		c2.509,7.16,9.268,11.955,16.854,11.955h6.387L365.273,95.668z"/>
	<path clip-path="url(#SVGID_2_)" fill="#A50000" d="M103.773,241.306l18.689,20.616l3.662-10.372
		c8.967-25.396,4.85-53.578-11.008-75.347l-8.181,7.252C89.963,198.497,88.542,224.504,103.773,241.306"/>
	<path clip-path="url(#SVGID_2_)" fill="#F7D247" d="M154.111,125.694c-28.695-0.088-54.31,17.973-63.864,45.031
		c-8.713,24.676-3.189,52.142,14.387,71.53l17.828,19.667c0,0,2.397-5.295,5.095-14.832l-15.917-36.199l112.803,0.347
		c8.79,0.027,16.637-5.506,19.564-13.795l2.477-7.016l-83.393-0.214l1.163-3.293l70.117,0.18
		c7.952,0.021,15.048-4.986,17.696-12.484l2.201-6.234l-83.392-0.215l1.162-3.29l70.917,0.181
		c7.473,0.019,14.142-4.686,16.629-11.732l2.125-6.018l-83.393-0.213l1.163-3.293l70.726,0.181
		c7.588,0.019,14.359-4.758,16.885-11.912l2.126-6.023L154.111,125.694z"/>
	<path clip-path="url(#SVGID_2_)" fill="#A50000" d="M210.606,408.077l25.297-11.592l-8.783-6.623
		c-21.502-16.217-49.613-20.801-75.153-12.256l4.443,9.99C165.626,408.317,189.989,417.524,210.606,408.077"/>
	<path clip-path="url(#SVGID_2_)" fill="#F7D247" d="M115.588,325.182c-8.748,27.329,0.736,57.202,23.646,74.479
		c20.894,15.757,48.746,18.784,72.536,7.882l24.132-11.058c0,0-4.156-3.796-12.24-9.093l-39.677,4.002l34.39-107.434
		c2.68-8.371-0.226-17.522-7.244-22.815l-5.94-4.48l-25.384,79.437l-2.788-2.104l21.343-66.79c2.42-7.574-0.21-15.852-6.559-20.64
		l-5.278-3.98l-25.385,79.434l-2.785-2.1l21.585-67.555c2.274-7.117-0.197-14.895-6.163-19.395l-5.096-3.843l-25.382,79.437
		l-2.788-2.103l21.526-67.371c2.31-7.228-0.2-15.125-6.257-19.693l-5.1-3.846L115.588,325.182z"/>
	<path clip-path="url(#SVGID_2_)" fill="#A50000" d="M409.303,359.353l-3.699-27.579l-8.898,6.465
		c-21.789,15.83-34.384,41.376-33.67,68.298l10.852-1.331C396.396,402.442,412.317,381.829,409.303,359.353"/>
	<path clip-path="url(#SVGID_2_)" fill="#F7D247" d="M302.271,426.02c23.583,16.348,54.924,16.001,78.14-0.865
		c21.172-15.381,32.2-41.135,28.721-67.072l-3.528-26.309c0,0-1.644-0.479-8.899,6.465l-11.131,41.702l-92.707-64.265
		c-7.225-5.009-16.825-4.902-23.938,0.265l-6.019,4.373l68.56,47.475l-2.826,2.053l-57.645-39.916
		c-6.538-4.527-15.222-4.43-21.656,0.244l-5.348,3.886l68.559,47.476l-2.823,2.051l-58.305-40.372
		c-6.143-4.254-14.304-4.161-20.349,0.23l-5.163,3.751l68.561,47.474l-2.824,2.054l-58.148-40.264
		c-6.238-4.318-14.524-4.225-20.662,0.234l-5.168,3.754L302.271,426.02z"/>
	<path clip-path="url(#SVGID_2_)" fill="#A50000" d="M431.174,157.412l-27.032-6.597l2.78,10.643
		c6.811,26.057,26.018,47.087,51.352,56.225l2.711-10.591C466.607,185.121,453.206,162.788,431.174,157.412"/>
	<path clip-path="url(#SVGID_2_)" fill="#F7D247" d="M454.295,281.37c23.812-16.013,34.9-45.327,27.646-73.09h-0.001
		c-6.616-25.319-26.587-44.968-52.01-51.172l-25.788-6.293c0,0,1.679,6.693,3.783,14.154l33.784,22.04L348.1,249.953
		c-7.294,4.904-10.691,13.886-8.468,22.391l1.881,7.198l69.179-46.568l0.883,3.379l-58.166,39.155
		c-6.597,4.44-9.667,12.564-7.656,20.258l1.672,6.396l69.18-46.567l0.882,3.376l-58.83,39.604
		c-6.198,4.172-9.084,11.807-7.194,19.036l1.613,6.175l69.18-46.57l0.882,3.379l-58.671,39.496
		c-6.293,4.237-9.224,11.989-7.306,19.329l1.615,6.18L454.295,281.37z"/>
</g>
</svg>
